<svg width="2401" height="513" viewBox="0 0 2401 513" fill="none" xmlns="http://www.w3.org/2000/svg">
<path fill-rule="evenodd" clip-rule="evenodd" d="M1464.99 79.395L1473.42 94.5893V256.496V418.402L1464.99 433.596L1456.56 448.79H1555.25H1653.95V408.438C1653.95 386.245 1653.66 368.086 1653.32 368.086C1652.98 368.086 1639.78 374.591 1623.99 382.543L1595.29 396.999L1568.96 396.99L1542.64 396.98V246.007V95.0337L1551.17 80.2558C1555.85 72.1287 1559.69 65.1911 1559.69 64.8394C1559.69 64.4887 1536.48 64.2007 1508.12 64.2007H1456.56L1464.99 79.395ZM1681.58 79.395L1690.01 94.5893V256.496V418.402L1681.58 433.596L1673.15 448.79H1777.36H1881.57V407.881V366.973L1860.76 377.621C1849.32 383.478 1836.27 390.229 1831.78 392.625L1823.6 396.98H1791.42H1759.23V339.69V282.401H1788.67H1818.11L1831.54 288.482C1838.93 291.827 1845.98 294.954 1847.22 295.432L1849.48 296.3V256.471C1849.48 225.262 1849.21 216.646 1848.23 216.661C1847.54 216.671 1840.46 219.585 1832.5 223.137L1818.02 229.594H1788.63H1759.23V172.802V116.011H1791.14H1823.04L1851.55 130.458C1867.23 138.404 1880.4 144.905 1880.82 144.905C1881.23 144.905 1881.57 126.746 1881.57 104.553V64.2007H1777.36H1673.15L1681.58 79.395ZM1979.84 65.1373C1979.84 66.1665 1916.99 413.16 1916.2 416.471C1915.94 417.601 1911.42 425.14 1906.16 433.225C1900.91 441.311 1896.61 448.121 1896.61 448.359C1896.61 448.596 1919.88 448.79 1948.32 448.79H2000.03L1999.35 446.688C1998.98 445.532 1995.97 438.92 1992.66 431.992C1989.34 425.065 1986.65 418.218 1986.67 416.777C1986.71 414.305 1991.3 382.711 1992.48 376.804L1993.03 374.064H2029.42H2065.8L2067.89 387.266C2069.04 394.526 2070.51 404.503 2071.17 409.435L2072.35 418.402L2065.2 433.248C2061.27 441.414 2058.05 448.251 2058.05 448.443C2058.05 448.634 2081.96 448.79 2111.19 448.79C2140.42 448.79 2164.34 448.592 2164.34 448.349C2164.34 448.107 2160.14 441.268 2155 433.152L2145.67 418.396L2113.2 241.298L2080.73 64.2007H2030.28C1999.48 64.2007 1979.84 64.5654 1979.84 65.1373ZM2182.93 79.3571L2191.38 94.5893V256.496V418.402L2182.93 433.638L2174.47 448.875L2269.93 448.534C2374.4 448.163 2369.41 448.446 2380.9 442.235C2389.88 437.375 2395.89 428.459 2398.54 416.041C2400.64 406.203 2400.64 106.789 2398.54 96.9496C2395.88 84.4714 2389.89 75.6179 2380.78 70.6909C2369.57 64.6272 2373.17 64.8284 2269.43 64.4608L2174.48 64.125L2182.93 79.3571ZM2260.6 256.496V397.134L2285.42 396.796C2309.07 396.475 2310.46 396.35 2314.99 394.125C2320.57 391.384 2325.24 386.418 2328.18 380.093C2330.29 375.563 2330.29 375.45 2330.29 256.496C2330.29 137.541 2330.29 137.428 2328.18 132.898C2325.24 126.573 2320.57 121.607 2314.99 118.866C2310.46 116.641 2309.07 116.516 2285.42 116.195L2260.6 115.857V256.496ZM2028.77 128.465C2027.65 131.845 1999.55 321.253 2000.09 321.785C2000.36 322.06 2013.66 322.166 2029.63 322.02L2058.67 321.756L2044.38 226.605C2036.52 174.272 2029.94 130.333 2029.75 128.963C2029.46 126.715 2029.36 126.667 2028.77 128.465Z" fill="#D9D9D9"/>
<path fill-rule="evenodd" clip-rule="evenodd" d="M423.43 0.423751C355.22 4.34322 284.706 33.4315 227.515 81.2408C213.074 93.3127 198.845 107.306 187.978 120.123C185.53 123.011 183.527 125.477 183.527 125.604C183.527 125.73 184.483 125.944 185.652 126.078C209.738 128.849 232.922 135.194 254.201 144.837C256.781 146.006 259.11 146.956 259.376 146.949C259.642 146.941 260.691 146.2 261.708 145.301C273.371 134.995 286.567 125.443 300.988 116.867L306.631 113.512L309.37 115.188C320.002 121.693 332.136 133.006 338.778 142.606C339.629 143.835 340.268 144.884 340.199 144.935C340.13 144.987 338.078 146.18 335.638 147.586C326.409 152.907 315.521 160.317 306.447 167.456L300.891 171.827L298.801 169.771C294.901 165.934 288.502 163.565 280.375 162.949C276.148 162.628 268.067 162.914 267.571 163.402C267.428 163.542 267.854 165.166 268.517 167.011C270.771 173.281 272.648 179.787 273.723 185.061C275.686 194.688 275.938 198.414 275.939 217.748L275.939 235.377L239.837 235.619C186.165 235.977 176.231 235.945 175.895 235.412C175.379 234.592 175.279 224.333 175.759 221.411C177.742 209.336 185.609 198.324 196.675 192.134C198.264 191.245 199.74 190.443 199.955 190.351C200.17 190.259 195.855 185.865 190.367 180.586L180.388 170.988L179.337 171.722C177.403 173.074 172.089 178.532 169.477 181.85C161.209 192.351 155.89 204.693 153.756 218.33C153.449 220.288 153.043 225.38 152.852 229.646C152.662 233.912 152.439 237.469 152.357 237.549C152.275 237.629 150.272 237.797 147.906 237.921L143.604 238.148V240.451V242.754L134.086 242.762C128.851 242.767 105.879 242.927 83.0371 243.117L41.5073 243.464L31.1012 236.775C21.3439 230.503 20.6575 230.125 20.086 230.705C19.0931 231.714 0.143741 256.205 0.000685925 256.665C-0.0713959 256.897 5.54692 262.332 12.4856 268.744L25.1018 280.402L30.4765 276.778C33.4326 274.784 37.2008 272.263 38.8502 271.176L41.8492 269.199L85.2414 270.116C109.107 270.621 132.002 271.139 136.119 271.266L143.604 271.499V273.817V276.136H147.997C152.238 276.136 152.398 276.164 152.621 276.952C152.748 277.401 153.012 280.626 153.206 284.118C153.851 295.713 155.325 302.936 158.889 311.974C163.409 323.434 172.113 335.461 180.351 341.629L181.748 342.674L191.452 332.899L201.157 323.124L198.183 321.563C194.104 319.422 190.907 317.021 187.379 313.449C183.806 309.831 181.777 306.958 179.581 302.406C176.534 296.092 175.266 288.593 175.927 280.798L176.193 277.674L199.913 277.456C212.959 277.336 235.263 277.145 249.476 277.03L275.319 276.821L275.065 291.083C274.925 298.927 274.317 328.367 273.712 356.506C273.108 384.645 272.503 416.015 272.368 426.217L272.123 444.766L273.737 448.622C274.624 450.743 275.478 452.479 275.633 452.479C276.014 452.479 286.057 441.272 301.639 423.462L314.487 408.777L313.233 408.27C312.544 407.991 310.4 407.439 308.469 407.043C305.552 406.446 304.08 406.358 299.782 406.527C296.935 406.638 293.609 406.978 292.389 407.283C291.169 407.588 289.558 407.84 288.809 407.843L287.447 407.849L287.623 402.678C287.72 399.834 288.038 387.058 288.33 374.286C288.809 353.302 288.931 350.79 289.599 348.228C290.597 344.397 292.29 341.404 295.135 338.438C299.473 333.915 298.874 334.14 332.224 324.536C348.645 319.808 362.179 316.037 362.3 316.156C362.561 316.412 369.091 345.282 369.091 346.18C369.091 346.531 359.64 355.269 347.097 366.515C335 377.36 325.097 386.485 325.089 386.791C325.077 387.342 347.704 512.793 347.854 513C347.91 513.078 479.459 444.317 479.867 443.995C479.904 443.967 478.851 442.394 477.527 440.501C471.768 432.26 464.323 418.591 460.04 408.393C454.543 395.306 449.804 379.309 447.463 365.94C444.678 350.03 443.728 330.467 445.381 323.043C447.235 314.715 450.822 308.309 457.032 302.24C462.216 297.173 467.895 293.964 475.116 292.019C479.221 290.913 488.163 290.919 492.29 292.029C498.708 293.756 504.81 297.29 510.252 302.433C526.611 317.892 536.135 344.832 537.866 380.545L538.116 385.715L545.369 385.716C572.643 385.716 600.662 389.894 612.336 395.701C613.385 396.223 614.307 396.587 614.385 396.51C614.463 396.433 609.694 383.033 603.787 366.732L593.047 337.093L599.819 327.848C610.792 312.87 612.986 309.609 615.687 304.269C619.514 296.699 622.209 287.859 622.893 280.634L623.136 278.068L650.165 277.835C665.032 277.707 707.968 277.43 745.58 277.22C783.192 277.01 816.544 276.679 819.695 276.485C828.216 275.961 834.012 274.513 841.393 271.065C847.921 268.016 854.666 263.082 858.928 258.239L861.107 255.762L860.381 254.761C858.891 252.707 852.549 247.125 849.228 244.944C841.172 239.655 833.16 236.742 823.207 235.483C820.5 235.141 729.077 235.503 689.301 236.014L676.271 236.181L676.267 221.779C676.263 206.4 675.864 196.229 674.953 188.327C670.486 149.584 653.76 112.173 626.53 80.0173C621.379 73.9346 606.852 59.6773 600.677 54.6446C573.54 32.5273 541.57 16.8048 505.766 7.96877C479.936 1.59393 450.307 -1.12089 423.43 0.423751ZM439.109 98.4354L432.793 119.93L440.587 120.178C444.874 120.314 449.961 120.586 451.893 120.782C453.824 120.978 455.504 121.03 455.625 120.897C455.976 120.513 470.397 79.0101 470.235 78.8508C469.822 78.4459 450.821 76.9201 446.4 76.9368C445.428 76.9404 445.4 77.0224 439.109 98.4354ZM409.383 78.9883C405.171 79.5177 395.132 81.1157 392.253 81.7147L390.463 82.0874L390.728 103.549C390.874 115.353 391.015 125.039 391.042 125.074C391.069 125.109 392.92 124.745 395.155 124.267C398.937 123.457 408.027 121.907 412.063 121.384L413.819 121.156V99.9731C413.819 88.3225 413.694 78.7249 413.542 78.6454C413.389 78.5656 411.518 78.7202 409.383 78.9883ZM502.419 87.0021C497.641 94.5217 479.247 124.436 479.247 124.686C479.247 124.865 481.718 125.626 484.738 126.377C487.759 127.127 493.123 128.627 496.659 129.71C500.196 130.793 503.191 131.567 503.315 131.429C503.726 130.971 526.932 94.0715 526.932 93.8755C526.932 93.3244 505.328 85.6415 503.779 85.6415C503.506 85.6415 502.895 86.2539 502.419 87.0021ZM551.044 130.741C541.264 137.767 533.251 143.624 533.239 143.756C533.226 143.888 535.315 145.08 537.88 146.405C540.446 147.73 544.548 150.038 546.997 151.532C549.446 153.027 551.639 154.202 551.871 154.144C552.103 154.085 560.54 149.878 570.619 144.794C582.978 138.56 588.886 135.397 588.762 135.08C588.335 133.987 571.764 119.668 569.227 118.199C569.007 118.072 560.825 123.716 551.044 130.741ZM606.037 157.51C605.732 157.7 597.934 160.542 588.707 163.826C579.481 167.11 571.84 169.886 571.728 169.997C571.616 170.107 573.6 172.276 576.138 174.817C579.763 178.446 584.835 183.943 585.181 184.617C585.274 184.796 619.347 179.842 619.764 179.589C620.398 179.204 613.346 166.712 608.591 159.795C607.581 158.325 606.717 157.132 606.673 157.144C606.628 157.155 606.342 157.32 606.037 157.51ZM795.298 197.359C795.298 197.78 795.433 198.124 795.597 198.124C796.084 198.124 797.371 197.06 796.9 197.047C796.662 197.04 796.205 196.936 795.883 196.815C795.464 196.657 795.298 196.811 795.298 197.359ZM610.862 199.27C603.656 199.849 597.687 200.393 597.6 200.479C597.512 200.565 598.434 202.152 599.649 204.006C600.864 205.86 602.813 208.96 603.981 210.895L606.106 214.414L608.012 214.787C611.891 215.546 634.737 219.532 635.206 219.532C635.565 219.532 635.627 219.177 635.442 218.171C635.179 216.737 630.163 201.812 629.161 199.484L628.576 198.124L626.271 198.171C625.002 198.197 618.069 198.691 610.862 199.27Z" fill="#D9D9D9"/>
<path fill-rule="evenodd" clip-rule="evenodd" d="M1221.88 65.2106C1193.36 70.8774 1175.19 90.6604 1171.6 119.949C1170.52 128.716 1170.52 385.754 1171.6 394.521C1175.19 423.799 1193.2 443.357 1222.49 449.772C1225.78 450.493 1242.11 450.682 1300.84 450.678L1375.03 450.673L1381.96 448.771C1409.01 441.347 1425.6 421.903 1428.71 393.942C1429.74 384.701 1429.74 129.768 1428.71 120.527C1425.47 91.4571 1407.32 71.2699 1379.19 65.4436C1373.32 64.2281 1368.59 64.1546 1299.8 64.2073C1240.93 64.2523 1225.72 64.4486 1221.88 65.2106ZM867.6 67.204C875.99 70.2513 880.891 73.1329 886.318 78.2098C891.409 82.9718 893.773 86.6314 895.645 92.6477C896.909 96.708 896.951 102.039 896.938 256.083C896.929 359.296 896.678 417.029 896.226 420.175C894.277 433.709 884.51 443.715 867.224 449.886L861.105 452.07L925.311 451.896C1079.13 451.479 1078.99 451.48 1085.2 449.714C1108.44 443.104 1123.58 427.205 1129.39 403.31C1130.8 397.508 1130.86 395.365 1131.12 343.081L1131.39 288.867L1090.27 302.577L1049.14 316.286L1048.8 350.55C1048.46 383.996 1048.42 384.879 1046.96 387.587C1045.2 390.832 1042.49 393.499 1039.09 395.308C1036.86 396.495 1034.44 396.617 1009.39 396.804C986.219 396.977 981.541 396.844 978.36 395.919C973.786 394.589 970.003 391.396 968.079 387.24C966.635 384.12 966.635 384.115 966.45 260.355C966.32 172.954 966.488 135.515 967.022 132.935C968.001 128.208 971.25 123.978 975.635 121.72L979.075 119.949L1006.55 119.746C1032.97 119.551 1034.18 119.599 1037.89 120.989C1040.34 121.906 1042.65 123.423 1044.2 125.137C1048.78 130.205 1048.8 130.442 1048.8 175.544C1048.8 197.784 1049.03 215.995 1049.32 216.013C1049.6 216.032 1068.19 210.026 1090.62 202.666L1131.41 189.285L1131.11 154.617C1130.86 124.893 1130.65 119.21 1129.62 114.767C1122.93 85.9664 1104.09 69.1454 1074.47 65.5413C1070.66 65.0781 1032.07 64.8389 964.919 64.8611L861.243 64.8958L867.6 67.204ZM1267.45 118.918C1263.19 119.788 1259.21 122.047 1257.14 124.765C1253.14 130.003 1253.34 123.021 1253.34 257.219C1253.34 395.111 1252.99 385.508 1258.15 390.662C1263.08 395.59 1263.39 395.624 1301.25 395.407L1334.81 395.214L1338.17 393.562C1342.26 391.549 1345.2 387.684 1346.2 383.011C1346.71 380.619 1346.94 341.456 1346.94 256.617C1346.94 123.246 1347.14 129.992 1343.2 124.825C1342.21 123.537 1339.61 121.601 1337.42 120.523L1333.42 118.562L1301.88 118.446C1284.52 118.381 1269.03 118.594 1267.45 118.918Z" fill="#8F5F3C"/>
</svg>
