<svg width="512" height="512" viewBox="0 0 512 512" fill="none" xmlns="http://www.w3.org/2000/svg">
<path fill-rule="evenodd" clip-rule="evenodd" d="M229.86 0.945174C153.85 12.8981 89.3725 45.9743 34.4955 101.164C23.1955 112.526 14.4353 122.608 15.0284 123.567C15.6199 124.528 18.3057 125.312 20.9968 125.312C28.5028 125.312 56.8624 132.955 72.833 139.284L87.1511 144.955L93.3508 139.929C96.7603 137.164 107.107 129.653 116.344 123.239L133.137 111.578L138.212 114.522C144.662 118.265 162.568 135.452 165.206 140.426C167.037 143.883 166.427 144.689 158.091 149.823C153.076 152.911 144.531 158.857 139.102 163.04C133.673 167.221 128.709 170.641 128.07 170.641C127.43 170.641 124.982 169.123 122.629 167.269C118.266 163.828 101.123 160.648 97.8545 162.674C96.6089 163.444 96.6124 165.258 97.8684 168.523C98.8686 171.126 100.845 179.14 102.259 186.332C104.506 197.764 104.557 215.027 102.657 323.649C101.14 410.296 101.034 448.442 102.308 449.718C103.579 450.992 109.468 445.37 121.768 431.137C131.467 419.911 139.405 409.985 139.405 409.081C139.405 408.148 134.051 407.682 127.063 408.005L114.723 408.577L114.963 380.112C115.238 347.709 117.088 340.177 126.099 334.819C131.426 331.652 187.82 314.4 188.886 315.612C189.18 315.945 190.975 323.076 192.875 331.458L196.331 346.697L174.825 366.121C162.022 377.685 153.321 386.852 153.321 388.775C153.321 392.387 174.241 511.186 175.02 511.996C175.556 512.554 299.522 446.543 301.517 444.638C302.181 444.005 300.063 439.263 296.81 434.1C278.035 404.298 264.253 347.661 269.767 322.968C274.725 300.767 294.884 286.755 315.496 291.185C321.696 292.519 326.304 295.235 333.418 301.752C348.851 315.889 358.147 339.387 361.28 372.186L362.463 384.57L381.951 385.618C401.23 386.653 426.092 390.82 432.046 394.014C433.74 394.922 435.125 395.337 435.125 394.938C435.125 394.537 430.872 382.153 425.676 367.416C420.478 352.681 415.976 339.752 415.674 338.686C415.369 337.619 419.669 330.351 425.231 322.535C430.792 314.719 436.846 304.916 438.684 300.751C444.195 288.267 445.677 271.988 442.962 253.773C441.654 244.995 440.758 237.639 440.972 237.425C441.186 237.21 445.371 238.898 450.275 241.175C456.507 244.069 464.723 250.994 477.594 264.202L496 283.092L495.981 235.148C495.965 194.936 495.435 184.672 492.683 171.513C474.301 83.5608 404.741 19.4133 310.142 3.17501C295.528 0.666225 283.099 -0.153185 262.304 0.0229008C246.852 0.153657 232.252 0.568594 229.86 0.945174ZM266.37 87.3928C264.362 94.3438 261.59 103.507 260.207 107.752C256.221 119.991 256.291 120.082 269.477 120.082H281.262L288.389 98.5054L295.516 76.9288L286.606 75.8566C269.657 73.815 270.412 73.3861 266.37 87.3928ZM230.73 77.3629C229.774 77.6889 226.056 78.4456 222.467 79.047L215.944 80.1419V102.845C215.944 125.077 216.019 125.523 219.578 124.392C221.577 123.755 226.86 122.713 231.32 122.075L239.428 120.915L239.915 98.7059C240.4 76.5731 240.388 76.4964 236.436 76.6341C234.255 76.7091 231.687 77.0386 230.73 77.3629ZM321.638 92.5394C310.484 110.151 302.549 123.776 303.168 124.247C304.561 125.307 327.464 130.923 327.937 130.321C329.65 128.137 350.335 93.9707 350.525 93.0101C350.725 92.0042 340.03 87.3422 330.425 84.2494C328.292 83.5625 325.888 85.8307 321.638 92.5394ZM374.242 128.886C365.152 135.581 357.512 141.657 357.264 142.391C357.015 143.123 360.936 145.958 365.977 148.692L375.143 153.66L394.001 144.178L412.857 134.697L402.977 125.645C397.543 120.668 392.573 116.621 391.931 116.654C391.291 116.688 383.331 122.192 374.242 128.886ZM409.561 162.592C401.721 165.636 394.888 168.546 394.377 169.056C393.867 169.569 396.831 173.314 400.964 177.38L408.481 184.772L424.596 182.172C433.459 180.743 441.076 179.205 441.525 178.755C442.483 177.795 437.821 168.312 433.034 161.488C428.899 155.597 427.393 155.667 409.561 162.592ZM427.732 198.036C423.187 198.416 419.469 199.092 419.469 199.538C419.469 202.739 428.918 214.321 432.083 214.997C447.069 218.198 456.407 219.631 457.188 218.847C457.69 218.343 456.589 213.371 454.74 207.799L451.379 197.664L443.687 197.504C439.457 197.417 432.278 197.656 427.732 198.036Z" fill="#9C420A"/>
</svg>
